<?xml version="1.0" encoding="UTF-8" standalone="no"?>
<!-- Created with Inkscape (http://www.inkscape.org/) -->

<svg
   xmlns:osb="http://www.openswatchbook.org/uri/2009/osb"
   xmlns:dc="http://purl.org/dc/elements/1.1/"
   xmlns:cc="http://creativecommons.org/ns#"
   xmlns:rdf="http://www.w3.org/1999/02/22-rdf-syntax-ns#"
   xmlns:svg="http://www.w3.org/2000/svg"
   xmlns="http://www.w3.org/2000/svg"
   xmlns:sodipodi="http://sodipodi.sourceforge.net/DTD/sodipodi-0.dtd"
   xmlns:inkscape="http://www.inkscape.org/namespaces/inkscape"
   width="72"
   height="72"
   id="svg2"
   version="1.1"
   inkscape:version="0.48.2 r9819"
   sodipodi:docname="projector.svg">
  <defs
     id="defs4">
    <linearGradient
       id="linearGradient5217"
       osb:paint="solid">
      <stop
         style="stop-color:#000000;stop-opacity:1;"
         offset="0"
         id="stop5219" />
    </linearGradient>
    <linearGradient
       id="linearGradient5199"
       osb:paint="solid">
      <stop
         style="stop-color:#000000;stop-opacity:1;"
         offset="0"
         id="stop5201" />
    </linearGradient>
  </defs>
  <sodipodi:namedview
     id="base"
     pagecolor="#ffffff"
     bordercolor="#666666"
     borderopacity="1.0"
     inkscape:pageopacity="0.0"
     inkscape:pageshadow="2"
     inkscape:zoom="5.6"
     inkscape:cx="46.434009"
     inkscape:cy="38.984851"
     inkscape:document-units="px"
     inkscape:current-layer="layer1"
     showgrid="false"
     showguides="true"
     inkscape:window-width="1135"
     inkscape:window-height="579"
     inkscape:window-x="75"
     inkscape:window-y="75"
     inkscape:window-maximized="0"
     inkscape:guide-bbox="true">
    <inkscape:grid
       type="xygrid"
       id="grid5225"
       empspacing="5"
       visible="true"
       enabled="true"
       snapvisiblegridlinesonly="true" />
  </sodipodi:namedview>
  <metadata
     id="metadata7">
    <rdf:RDF>
      <cc:Work
         rdf:about="">
        <dc:format>image/svg+xml</dc:format>
        <dc:type
           rdf:resource="http://purl.org/dc/dcmitype/StillImage" />
        <dc:title />
      </cc:Work>
    </rdf:RDF>
  </metadata>
  <g
     inkscape:label="Layer 1"
     inkscape:groupmode="layer"
     id="layer1"
     transform="translate(0,-980.36218)">
    <path
       style="fill:#000000;fill-opacity:1;stroke:none;stroke-width:0.2;stroke-miterlimit:4;stroke-dasharray:none"
       d="M 6.21875 22 C -2.0769537 22 -2.0769537 47 6.21875 47 L 65.9375 47 C 74.233202 47 74.233202 22 65.9375 22 L 6.21875 22 z M 53.78125 26.0625 C 58.317875 26.0625 62 29.744625 62 34.28125 C 62 38.817875 58.317875 42.5 53.78125 42.5 C 49.244625 42.5 45.5625 38.817875 45.5625 34.28125 C 45.5625 29.744625 49.244625 26.0625 53.78125 26.0625 z M 6.1875 27.4375 L 17.5625 27.4375 L 17.5625 29.6875 L 6.1875 29.6875 L 6.1875 27.4375 z M 6.1875 33.5625 L 17.5625 33.5625 L 17.5625 35.84375 L 6.1875 35.84375 L 6.1875 33.5625 z M 6.21875 39.78125 L 17.5625 39.78125 L 17.5625 42.0625 L 6.21875 42.0625 L 6.21875 39.78125 z "
       transform="translate(0,980.36218)"
       id="rect5227" />
    <path
       sodipodi:type="arc"
       style="fill:#000000;fill-opacity:1;fill-rule:evenodd;stroke:#ffffff;stroke-width:0;stroke-linecap:round;stroke-miterlimit:4;stroke-opacity:1;stroke-dasharray:none"
       id="path5294-1"
       sodipodi:cx="51.785713"
       sodipodi:cy="36.285713"
       sodipodi:rx="8.2142859"
       sodipodi:ry="8.2142859"
       d="m 59.999999,36.285713 a 8.2142859,8.2142859 0 1 1 -16.428572,0 8.2142859,8.2142859 0 1 1 16.428572,0 z"
       transform="matrix(0.5652174,0,0,0.5652174,24.515528,994.06714)" />
  </g>
</svg>
