<?xml version="1.0" encoding="UTF-8" standalone="no"?>
<!-- Created with Inkscape (http://www.inkscape.org/) -->

<svg
   xmlns:dc="http://purl.org/dc/elements/1.1/"
   xmlns:cc="http://creativecommons.org/ns#"
   xmlns:rdf="http://www.w3.org/1999/02/22-rdf-syntax-ns#"
   xmlns:svg="http://www.w3.org/2000/svg"
   xmlns="http://www.w3.org/2000/svg"
   xmlns:sodipodi="http://sodipodi.sourceforge.net/DTD/sodipodi-0.dtd"
   xmlns:inkscape="http://www.inkscape.org/namespaces/inkscape"
   id="svg4320"
   version="1.1"
   inkscape:version="0.48.2 r9819"
   width="72"
   height="72"
   xml:space="preserve"
   sodipodi:docname="study-spaces-maker.svg"
   inkscape:export-filename="C:\Users\Eric\Downloads\_Pictures\study-spaces-maker.png"
   inkscape:export-xdpi="94"
   inkscape:export-ydpi="94"><metadata
     id="metadata4326"><rdf:RDF><cc:Work
         rdf:about=""><dc:format>image/svg+xml</dc:format><dc:type
           rdf:resource="http://purl.org/dc/dcmitype/StillImage" /><dc:title></dc:title></cc:Work></rdf:RDF></metadata><defs
     id="defs4324"><clipPath
       clipPathUnits="userSpaceOnUse"
       id="clipPath4334"><path
         d="M 0,270 268,270 268,0 0,0 0,270 z"
         id="path4336"
         inkscape:connector-curvature="0" /></clipPath><clipPath
       clipPathUnits="userSpaceOnUse"
       id="clipPath4350"><path
         d="M 0,270 268,270 268,0 0,0 0,270 z"
         id="path4352"
         inkscape:connector-curvature="0" /></clipPath><clipPath
       clipPathUnits="userSpaceOnUse"
       id="clipPath4362"><path
         d="M 0,270 268,270 268,0 0,0 0,270 z"
         id="path4364"
         inkscape:connector-curvature="0" /></clipPath></defs><sodipodi:namedview
     pagecolor="#ffffff"
     bordercolor="#666666"
     borderopacity="1"
     objecttolerance="10"
     gridtolerance="10"
     guidetolerance="10"
     inkscape:pageopacity="0"
     inkscape:pageshadow="2"
     inkscape:window-width="1366"
     inkscape:window-height="716"
     id="namedview4322"
     showgrid="true"
     showguides="false"
     inkscape:snap-global="false"
     inkscape:zoom="5.5940741"
     inkscape:cx="22.298647"
     inkscape:cy="34.11553"
     inkscape:window-x="-8"
     inkscape:window-y="-8"
     inkscape:window-maximized="1"
     inkscape:current-layer="g4330"><inkscape:grid
       type="xygrid"
       id="grid4884"
       empspacing="5"
       visible="true"
       enabled="true"
       snapvisiblegridlinesonly="true" /></sodipodi:namedview><g
     id="g4328"
     inkscape:groupmode="layer"
     inkscape:label="google-marker"
     transform="matrix(1.25,0,0,-1.25,0,72)"><g
       id="g4330"
       transform="matrix(0.38510625,0,0,0.38510625,-23.399217,-23.244223)"><path
         d="m 137.7402,66.333 c 0.985,19.151 11.538,50.256 26.833,69.833 8.333,10.667 12.167,21.063 12.167,27.37 0,21.907 -17.551,39.667 -39.2,39.667 l -0.001,0 c -21.65,0 -39.2,-17.76 -39.2,-39.667 0,-6.307 3.834,-16.703 12.167,-27.37 15.295,-19.577 25.847,-50.682 26.833,-69.833 l 0.401,0 z"
         style="fill:#4096ee;fill-opacity:0.94117647;fill-rule:nonzero;stroke:none"
         id="path4340"
         inkscape:connector-curvature="0" /><path
         d="m 137.54,201.7031 c -20.788,0 -37.701,-17.122 -37.701,-38.167 0,-5.203 3.103,-15.251 11.848,-26.446 13.075,-16.735 22.476,-41.346 25.852,-60.042 3.377,18.696 12.778,43.307 25.853,60.042 8.745,11.195 11.848,21.243 11.848,26.446 0,21.045 -16.912,38.167 -37.7,38.167 m 1.625,-136.87 -3.251,0 -0.073,1.423 c -0.949,18.441 -11.127,49.288 -26.517,68.987 -9.205,11.783 -12.485,22.341 -12.485,28.293 0,22.7 18.258,41.167 40.7,41.167 22.442,0 40.701,-18.467 40.701,-41.167 0,-5.952 -3.28,-16.51 -12.485,-28.293 -15.39,-19.699 -25.568,-50.546 -26.517,-68.987 l -0.073,-1.423 z"
         style="fill:#4096ee;fill-opacity:1;fill-rule:nonzero;stroke:none"
         id="path4344"
         inkscape:connector-curvature="0" /><path
         sodipodi:type="arc"
         style="fill:#d9df10;fill-opacity:1;stroke-width:0.40000001;stroke-miterlimit:4;stroke-dasharray:none"
         id="path4886"
         sodipodi:cx="37.539726"
         sodipodi:cy="21.768272"
         sodipodi:rx="22.166313"
         sodipodi:ry="22.166313"
         d="m 59.706039,21.768272 a 22.166313,22.166313 0 1 1 -44.332626,0 22.166313,22.166313 0 1 1 44.332626,0 z"
         transform="matrix(1.3402251,0,0,-1.3402251,87.317799,192.76711)" /></g></g></svg>